# xmcd
#
# Track frame offsets:
#	150
#	18655
#	47690
#	77903
#	97920
#	126953
#	188365
#	212513
#
# Disc length: 3060 seconds
#
# Revision: 1
# Processed by: cddbd v1.4PL0 Copyright (c) Steve Scherf et al.
# Submitted via: audiograbber 1.81.03
#
DISCID=5e0bf208
DTITLE=John Lee Hooker - On Stage 1992
DYEAR=1900
DGENRE=
TTITLE0=John Lee Hooker - Ride Johnny Ride
TTITLE1=John Lee Hooker - Crawling King Snake
TTITLE2=John Lee Hooker - I´m In A Mood For Love
TTITLE3=John Lee Hooker - You Gimme So Much Trouble
TTITLE4=John Lee Hooker - Born For Good Luck (Bad Luck Do Me No Harm)
TTITLE5=John Lee Hooker - Higher and Higher
TTITLE6=John Lee Hooker - Boogie Chilun
TTITLE7=John Lee Hooker - Red House
EXTD=
EXTT0=
EXTT1=
EXTT2=
EXTT3=
EXTT4=
EXTT5=
EXTT6=
EXTT7=
PLAYORDER=
